<svg width="46" height="46" viewBox="0 0 39 39" fill="none" xmlns="http://www.w3.org/2000/svg">
<circle cx="19.5" cy="19.5" r="19.5" fill="#5F57FF"/>
<path d="M28.9375 21.125C28.9375 20.6375 29.2625 20.3125 29.75 20.3125H32.675C32.025 18.85 30.6437 17.875 28.9375 17.875H26.9062L24.0625 14.4625C23.25 13.5688 22.1125 13 20.8938 13H14.7188C13.175 13 11.7937 13.8938 11.0625 15.275L9.7625 17.875H9.4375C8.05625 17.875 7 18.9312 7 20.3125V23.5625C7 24.4563 7.73125 25.1875 8.625 25.1875H9.51875C9.84375 26.5688 11.1438 27.625 12.6875 27.625C14.2312 27.625 15.45 26.5688 15.8562 25.1875H22.6C22.925 26.5688 24.225 27.625 25.7688 27.625C27.3125 27.625 28.5312 26.5688 28.9375 25.1875H31.375C32.2688 25.1875 33 24.4563 33 23.5625V21.9375H29.75C29.2625 21.9375 28.9375 21.6125 28.9375 21.125ZM12.6875 26C11.7937 26 11.0625 25.2688 11.0625 24.375C11.0625 23.4812 11.7937 22.75 12.6875 22.75C13.5813 22.75 14.3125 23.4812 14.3125 24.375C14.3125 25.2688 13.5813 26 12.6875 26ZM14.6375 17.875H11.55L12.525 16.0062C12.9313 15.1937 13.7437 14.625 14.7188 14.625H16.2625L14.6375 17.875ZM16.425 17.875L18.05 14.625H20.8938C21.625 14.625 22.275 14.95 22.7625 15.5188L24.7125 17.875H16.425ZM25.6875 26C24.7937 26 24.0625 25.2688 24.0625 24.375C24.0625 23.4812 24.7937 22.75 25.6875 22.75C26.5813 22.75 27.3125 23.4812 27.3125 24.375C27.3125 25.2688 26.5813 26 25.6875 26Z" fill="white"/>
</svg>
